<svg xmlns="http://www.w3.org/2000/svg" width="24" height="24"><rect id="backgroundrect" width="100%" height="100%" x="0" y="0" fill="none" stroke="none" style="" class=""/><g class="currentLayer" style=""><title>Layer 1</title><path d="M12,2 c5.513999938964844,0 10,4.486000061035156 10,10 s-4.486000061035156,10 -10,10 s-10,-4.486000061035156 -10,-10 s4.486000061035156,-10 10,-10 zm0,-2 c-6.626999855041504,0 -12,5.373000144958496 -12,12 s5.373000144958496,12 12,12 s12,-5.373000144958496 12,-12 s-5.373000144958496,-12 -12,-12 zm4.39300012588501,7.5 l-5.64300012588501,5.783999919891357 l-2.6440000534057617,-2.50600004196167 l-1.8559999465942383,1.8580000400543213 l4.5,4.363999843597412 l7.5,-7.64300012588501 l-1.8569999933242798,-1.8569999933242798 z" id="svg_1" class="selected" opacity="1" fill-opacity="1" fill="#2e199e"/></g></svg>